<svg width="303" height="241" viewBox="0 0 303 241" fill="none" xmlns="http://www.w3.org/2000/svg">
<path d="M201.5 173.5L201.8 173.9L201.5 173.5ZM299.878 0.172526C299.697 -0.0361483 299.381 -0.0587118 299.173 0.122152L295.772 3.06935C295.563 3.25019 295.541 3.56598 295.722 3.77465C295.902 3.98332 296.218 4.00589 296.427 3.82502L299.45 1.2053L302.069 4.22805C302.25 4.43672 302.566 4.45929 302.775 4.27842C302.983 4.09758 303.006 3.78179 302.825 3.57312L299.878 0.172526ZM0.5 240.5C0.495475 241 0.496049 241 0.497043 241C0.497936 241 0.499351 241 0.501135 241C0.504703 241 0.50995 241 0.516868 241C0.530704 241 0.551223 241 0.578365 241C0.632648 241.001 0.713418 241.001 0.820178 241.001C1.0337 241.001 1.35118 240.999 1.76863 240.995C2.60354 240.985 3.83837 240.963 5.44126 240.91C8.647 240.804 13.3251 240.577 19.2206 240.092C31.0113 239.122 47.6731 237.119 67.1659 232.989C106.148 224.73 156.473 207.958 201.8 173.9L201.199 173.101C156.026 207.043 105.852 223.77 66.9586 232.011C47.514 236.131 30.8947 238.128 19.1386 239.095C13.2607 239.579 8.59901 239.805 5.4083 239.91C3.81296 239.963 2.5854 239.985 1.75748 239.995C1.34352 239.999 1.02947 240.001 0.819314 240.001C0.714237 240.001 0.635135 240.001 0.582504 240C0.556188 240 0.536491 240 0.523474 240C0.516965 240 0.512126 240 0.508966 240C0.507385 240 0.506275 240 0.505484 240C0.504794 240 0.504525 240 0.5 240.5ZM201.8 173.9C247.146 139.828 271.694 96.489 284.905 61.6776C291.511 44.2714 295.283 28.9932 297.405 18.0641C298.466 12.5994 299.114 8.22135 299.497 5.20759C299.689 3.7007 299.814 2.53479 299.891 1.74459C299.93 1.34948 299.957 1.0483 299.974 0.845357C299.983 0.743888 299.989 0.66698 299.993 0.615171C299.995 0.589277 299.996 0.569648 299.997 0.55636C299.998 0.549727 299.998 0.544669 299.998 0.541213C299.998 0.539476 299.999 0.538077 299.999 0.537208C299.999 0.536207 299.999 0.535621 299.5 0.499991C299.001 0.464361 299.001 0.464571 299.001 0.465178C299.001 0.465916 299.001 0.466899 299.001 0.468372C299.001 0.471301 299 0.475832 299 0.481938C298.999 0.494149 298.998 0.51272 298.996 0.537535C298.992 0.587184 298.986 0.661923 298.978 0.761197C298.961 0.959763 298.934 1.25646 298.896 1.64701C298.82 2.42809 298.695 3.58448 298.505 5.0815C298.124 8.07557 297.48 12.432 296.423 17.8735C294.31 28.7571 290.552 43.979 283.97 61.3228C270.806 96.0117 246.354 139.173 201.199 173.101L201.8 173.9Z" fill="#FDFDFB" fill-opacity="0.7"/>
</svg>
