<svg width="24" height="24" viewBox="0 0 24 24" fill="none" xmlns="http://www.w3.org/2000/svg">
<path d="M18.7803 10.5303C19.0732 10.2374 19.0732 9.76262 18.7803 9.46973L12.7803 3.46973C12.4874 3.17683 12.0127 3.17683 11.7198 3.46973L5.71978 9.46973L5.66803 9.52637C5.42785 9.82095 5.44523 10.2557 5.71978 10.5303C5.99434 10.8048 6.42911 10.8222 6.72369 10.582L6.78033 10.5303L11.5001 5.81055L11.5001 20C11.5001 20.4141 11.836 20.7499 12.2501 20.75C12.6642 20.75 13 20.4141 13.0001 20L13.0001 5.81055L17.7198 10.5303C18.0126 10.8231 18.4874 10.823 18.7803 10.5303Z" fill="white"/>
</svg>
