<svg width="100" height="100" viewBox="0 0 100 100" fill="none" xmlns="http://www.w3.org/2000/svg">
<path d="M72.6667 8.16602C72.1144 8.16602 71.6667 8.61373 71.6667 9.16602V16.4993H28.3333V9.16602C28.3333 8.61373 27.8856 8.16602 27.3333 8.16602H26C25.4477 8.16602 25 8.61373 25 9.16602V16.4993H20.8333C16.2083 16.4993 12.5417 20.2493 12.5417 24.8327L12.5 79.166C12.5 81.3761 13.378 83.4957 14.9408 85.0585C16.5036 86.6214 18.6232 87.4993 20.8333 87.4993H79.1667C83.75 87.4993 87.5 83.7493 87.5 79.166V24.8327C87.5 20.2493 83.75 16.4993 79.1667 16.4993H75V9.16602C75 8.61373 74.5523 8.16602 74 8.16602H72.6667ZM85.8333 77.8327C85.8333 82.2509 82.2516 85.8327 77.8333 85.8327H22.1667C17.7484 85.8327 14.1667 82.2509 14.1667 77.8327V36.3327C14.1667 31.9144 17.7484 28.3327 22.1667 28.3327H77.8333C82.2516 28.3327 85.8333 31.9144 85.8333 36.3327V77.8327Z" fill="#5C5C5B" fill-opacity="0.5"/>
<path d="M47 36H53.5C55.1569 36 56.5 37.3431 56.5 39V45.5C56.5 47.1569 55.1569 48.5 53.5 48.5H47C45.3431 48.5 44 47.1569 44 45.5V39C44 37.3431 45.3431 36 47 36Z" fill="#5C5C5B" fill-opacity="0.5"/>
<path d="M26 36H32.5C34.1569 36 35.5 37.3431 35.5 39V45.5C35.5 47.1569 34.1569 48.5 32.5 48.5H26C24.3431 48.5 23 47.1569 23 45.5V39C23 37.3431 24.3431 36 26 36Z" fill="#5C5C5B" fill-opacity="0.5"/>
</svg>
