<svg width="16" height="16" viewBox="0 0 16 16" fill="none" xmlns="http://www.w3.org/2000/svg">
<g clip-path="url(#clip0_2344_20293)">
<path d="M14.6693 7.38723V8.00056C14.6685 9.43818 14.2029 10.837 13.3422 11.9884C12.4814 13.1399 11.2715 13.9822 9.89284 14.3898C8.51422 14.7974 7.04078 14.7485 5.69225 14.2503C4.34373 13.7521 3.19237 12.8313 2.40991 11.6253C1.62745 10.4192 1.2558 8.9926 1.35039 7.5581C1.44498 6.1236 2.00074 4.75811 2.93479 3.66528C3.86884 2.57244 5.13113 1.81082 6.5334 1.49399C7.93567 1.17717 9.40278 1.32212 10.7159 1.90723" stroke="#A5A5A5" stroke-linecap="round" stroke-linejoin="round"/>
<path d="M14.6667 2.66602L8 9.33935L6 7.33935" stroke="#A5A5A5" stroke-linecap="round" stroke-linejoin="round"/>
</g>
<defs>
<clipPath id="clip0_2344_20293">
<rect width="16" height="16" fill="white"/>
</clipPath>
</defs>
</svg>
