<svg width="61" height="60" viewBox="0 0 61 60" fill="none" xmlns="http://www.w3.org/2000/svg">
<path d="M26.9 52.5H12C9.79086 52.5 8 50.7091 8 48.5V11.5C8 9.29086 9.79086 7.5 12 7.5L49 7.5C51.2091 7.5 53 9.29086 53 11.5V22.8" stroke="#A5A5A5" stroke-width="3" stroke-linecap="round"/>
<path d="M23.2969 32.1307L27.7969 35.9984L41.2969 20.3984" stroke="#A5A5A5" stroke-width="3" stroke-linecap="round" stroke-linejoin="round"/>
<path d="M52.8824 41.5668L42.9969 51.4523L36.056 52.0833L36.687 45.1424L46.5725 35.2569M52.8824 41.5668L54.9857 39.4635C56.7282 37.721 56.7282 34.896 54.9857 33.1536V33.1536C53.2433 31.4111 50.4183 31.4111 48.6758 33.1536L46.5725 35.2569M52.8824 41.5668L46.5725 35.2569" stroke="#A5A5A5" stroke-width="3" stroke-linejoin="round"/>
</svg>
