<svg xmlns="http://www.w3.org/2000/svg" width="100" height="100" fill="none"><path fill="url(#a)" fill-opacity=".5" d="M91.666 23.75 72.5 7.5l-5.417 6.25L86.25 30l5.416-6.25Zm-58.75-9.583L27.5 7.917 8.333 23.75 13.75 30l19.166-15.833Zm19.167 19.166h-6.25v25l19.583 12.084 3.334-5-16.667-10V33.333ZM50 16.667c-20.834 0-37.5 16.666-37.5 37.5 0 20.833 16.666 37.5 37.5 37.5 20.833 0 37.5-16.667 37.5-37.5 0-20.834-16.667-37.5-37.5-37.5Zm0 66.666c-16.25 0-29.167-12.916-29.167-29.166S33.75 25 50 25s29.166 12.917 29.166 29.167S66.25 83.333 50 83.333Z"/><defs><linearGradient id="a" x1="50" x2="50" y1="7.5" y2="91.667" gradientUnits="userSpaceOnUse"><stop stop-color="#00BE35"/><stop offset="1" stop-color="#00BEBE"/></linearGradient></defs></svg>