<svg width="24" height="24" viewBox="0 0 24 24" fill="none" xmlns="http://www.w3.org/2000/svg">
<path d="M12 2.50391C17.5186 2.50391 22.1248 6.56394 22.125 11.7275C22.125 14.3152 20.956 16.6388 19.1016 18.3018L19.4932 20.6191C19.538 20.8858 19.4357 21.156 19.2256 21.3262C19.015 21.4964 18.7283 21.5403 18.4766 21.4404L15.668 20.3252C14.5287 20.7287 13.2919 20.9521 12 20.9521C6.48121 20.9521 1.875 16.8913 1.875 11.7275C1.87524 6.56394 6.48135 2.50391 12 2.50391ZM12 4.00391C7.1636 4.00391 3.37524 7.53135 3.375 11.7275C3.375 15.9239 7.16345 19.4521 12 19.4521C13.214 19.4521 14.3669 19.2276 15.4111 18.8242L15.5459 18.7861C15.6834 18.7609 15.8264 18.7739 15.958 18.8262L17.792 19.5537L17.5527 18.1338C17.5082 17.8685 17.6093 17.5992 17.8174 17.4287C19.5561 16.0047 20.625 13.9695 20.625 11.7275C20.6248 7.53135 16.8364 4.00391 12 4.00391ZM9.40234 10.4844C10.1294 10.4844 10.7188 11.0738 10.7188 11.8008C10.7188 12.5278 10.1294 13.1172 9.40234 13.1172C8.67531 13.1172 8.08594 12.5278 8.08594 11.8008C8.08594 11.0738 8.67531 10.4844 9.40234 10.4844ZM14.5977 10.4844C15.3247 10.4844 15.9141 11.0738 15.9141 11.8008C15.9141 12.5278 15.3247 13.1172 14.5977 13.1172C13.8706 13.1172 13.2812 12.5278 13.2812 11.8008C13.2812 11.0738 13.8706 10.4844 14.5977 10.4844Z" fill="white"/>
</svg>
