<svg width="67" height="18" viewBox="0 0 67 18" fill="none" xmlns="http://www.w3.org/2000/svg">
<g clip-path="url(#clip0_3872_16729)">
<path d="M0.722669 14.1222C12.8716 0.824922 41.0151 -7.12182 63.7774 13.5031L63.8272 8.33509C63.8328 7.78459 64.2857 7.3427 64.8389 7.34778C65.3924 7.35309 65.8372 7.80384 65.832 8.35462L65.7588 15.9669L65.7529 16.0646C65.7279 16.2926 65.6249 16.507 65.459 16.6691C65.2692 16.8542 65.0128 16.9568 64.7471 16.9542L57.0967 16.88L56.9951 16.8742C56.49 16.8183 56.0995 16.3888 56.1045 15.8722C56.1097 15.3561 56.5081 14.9352 57.0137 14.8888L57.1162 14.8849L62.3779 14.9357C40.5635 -4.77327 13.7145 2.86798 2.19923 15.4718C1.82669 15.8793 1.19381 15.9077 0.786146 15.5353C0.378693 15.1627 0.350243 14.5298 0.722669 14.1222Z" fill="#5C5C5B" fill-opacity="0.5"/>
</g>
<defs>
<clipPath id="clip0_3872_16729">
<rect width="66" height="17" fill="white" transform="translate(0.25 0.5)"/>
</clipPath>
</defs>
</svg>
