<svg width="71" height="70" viewBox="0 0 71 70" fill="none" xmlns="http://www.w3.org/2000/svg">
<path d="M55.3945 5.76562C58.4317 5.76601 60.8944 8.22845 60.8945 11.2656V32.123C60.8945 32.9512 60.2226 33.6227 59.3945 33.623C58.5661 33.623 57.8945 32.9515 57.8945 32.123V11.2656C57.8944 9.8853 56.7748 8.76601 55.3945 8.76562H13.4688C12.0881 8.76562 10.9689 9.88506 10.9688 11.2656V58.7383L10.9814 58.9941C11.1096 60.2547 12.1744 61.2383 13.4688 61.2383H32.9922L33.1455 61.2461C33.9016 61.323 34.492 61.9619 34.4922 62.7383C34.4922 63.5148 33.9017 64.1535 33.1455 64.2305L32.9922 64.2383H13.4688C10.5262 64.2383 8.12298 61.9274 7.97559 59.0215L7.96875 58.7383V11.2656C7.96893 8.22821 10.4313 5.76562 13.4688 5.76562H55.3945ZM51.7422 39.3262C53.509 39.3262 55.024 39.7965 56.2871 40.7363C57.5503 41.6687 58.5164 43.0225 59.1855 44.7969C59.8621 46.5637 60.2002 48.6987 60.2002 51.2021C60.2002 53.7208 59.8664 55.8714 59.1973 57.6533C58.5282 59.4276 57.5618 60.7848 56.2988 61.7246C55.0357 62.6569 53.5165 63.123 51.7422 63.123C49.9604 63.1155 48.4379 62.646 47.1748 61.7139C45.9118 60.7816 44.9455 59.4243 44.2764 57.6426C43.6072 55.8606 43.2725 53.7134 43.2725 51.2021C43.2725 48.6985 43.6072 46.5595 44.2764 44.7852C44.9531 43.0108 45.9224 41.6569 47.1855 40.7246C48.4562 39.7923 49.9753 39.3262 51.7422 39.3262ZM51.7422 42.2812C50.1858 42.2812 48.9634 43.0482 48.0762 44.582C47.189 46.1158 46.7419 48.3227 46.7344 51.2021C46.7344 53.127 46.9335 54.7551 47.332 56.0859C47.738 57.409 48.3134 58.4125 49.0576 59.0967C49.802 59.7734 50.6971 60.1123 51.7422 60.1123C53.306 60.1123 54.5276 59.3485 55.4072 57.8223C56.2944 56.296 56.7383 54.0892 56.7383 51.2021C56.7383 49.2851 56.5349 47.665 56.1289 46.3418C55.7304 45.011 55.1552 44.0035 54.4033 43.3193C53.659 42.6276 52.7722 42.2813 51.7422 42.2812ZM30.6592 32.3086C31.4157 32.3853 32.0059 33.024 32.0059 33.8008C32.0059 34.5775 31.4157 35.2163 30.6592 35.293L30.5059 35.3008H22.2744C21.446 35.3008 20.7744 34.6292 20.7744 33.8008C20.7744 32.9724 21.446 32.3008 22.2744 32.3008H30.5059L30.6592 32.3086ZM41.6348 21.3486C42.3913 21.4253 42.9814 22.064 42.9814 22.8408C42.9813 23.6175 42.3912 24.2564 41.6348 24.333L41.4814 24.3408H22.2744C21.4461 24.3408 20.7746 23.6691 20.7744 22.8408C20.7744 22.0124 21.446 21.3408 22.2744 21.3408H41.4814L41.6348 21.3486Z" fill="#5F5F5F"/>
</svg>
