<svg width="81" height="81" viewBox="0 0 81 81" fill="none" xmlns="http://www.w3.org/2000/svg">
<path d="M37.1719 10.5C50.9788 10.5002 62.1719 21.693 62.1719 35.5C62.1719 41.8647 59.7916 47.6726 55.875 52.0859L69.8945 66.1055L69.998 66.2197C70.4782 66.8089 70.4436 67.6775 69.8945 68.2266C69.3455 68.7753 68.4767 68.8101 67.8877 68.3301L67.7734 68.2266L53.7529 54.2061C49.3401 58.1205 43.5346 60.4999 37.1719 60.5C23.3648 60.5 12.1719 49.3071 12.1719 35.5C12.1719 21.6929 23.3648 10.5 37.1719 10.5ZM37.1719 13.5C25.0216 13.5 15.1719 23.3497 15.1719 35.5C15.1719 47.6503 25.0216 57.5 37.1719 57.5C49.322 57.4998 59.1719 47.6501 59.1719 35.5C59.1719 23.3499 49.322 13.5002 37.1719 13.5ZM37.2002 37.8994C39.9878 37.8994 42.4984 39.0925 44.2461 40.9912L44.585 41.3799L44.6768 41.5029C45.0994 42.1351 44.9827 42.9976 44.3838 43.4922C43.785 43.9862 42.9166 43.9375 42.376 43.4033L42.2725 43.29L42.0381 43.0225C40.835 41.7153 39.1133 40.8994 37.2002 40.8994C35.1599 40.8997 33.3368 41.8275 32.1289 43.29C31.6014 43.9283 30.6562 44.0194 30.0176 43.4922C29.3791 42.9648 29.2893 42.0186 29.8164 41.3799C31.5698 39.257 34.2273 37.8997 37.2002 37.8994ZM31.3291 29.124C32.5449 29.1243 33.5303 30.1103 33.5303 31.3262C33.53 32.5418 32.5448 33.5271 31.3291 33.5273C30.1132 33.5273 29.1272 32.542 29.127 31.3262C29.127 30.1101 30.1131 29.124 31.3291 29.124ZM43.0713 29.124C44.2873 29.124 45.2734 30.1101 45.2734 31.3262C45.2732 32.542 44.2872 33.5273 43.0713 33.5273C41.8556 33.5271 40.8704 32.5418 40.8701 31.3262C40.8701 30.1103 41.8555 29.1243 43.0713 29.124Z" fill="#5F5F5F"/>
</svg>
