<svg width="60" height="60" viewBox="0 0 60 60" fill="none" xmlns="http://www.w3.org/2000/svg">
<path d="M8.50755 42.7137L29.011 54.4327C29.6261 54.7842 30.3812 54.7841 30.9962 54.4325L51.4927 42.7138C52.1156 42.3576 52.5 41.6951 52.5 40.9775V19.0245C52.5 18.307 52.1156 17.6444 51.4927 17.2883L30.9927 5.56756C30.3776 5.2159 29.6224 5.2159 29.0073 5.56756L8.50731 17.2883C7.88439 17.6444 7.5 18.307 7.5 19.0245V40.9773C7.5 41.695 7.8845 42.3576 8.50755 42.7137Z" stroke="#A5A5A5" stroke-width="3" stroke-linecap="round" stroke-linejoin="round"/>
<path d="M9.60156 19.1992L30.2912 30.8659M30.2912 30.8659L49.6016 19.1992M30.2912 30.8659V54.1992" stroke="#A5A5A5" stroke-width="3" stroke-linecap="round" stroke-linejoin="round"/>
</svg>
