<svg width="61" height="60" viewBox="0 0 61 60" fill="none" xmlns="http://www.w3.org/2000/svg">
<path d="M43 6C43.7767 6 44.4154 6.59028 44.4922 7.34668L44.5 7.5H49L49.2061 7.50488C51.3194 7.61211 53 9.35996 53 11.5V48.5L52.9951 48.7061C52.8913 50.7512 51.2512 52.3913 49.2061 52.4951L49 52.5H12L11.7939 52.4951C9.7488 52.3913 8.10865 50.7512 8.00488 48.7061L8 48.5V11.5C8 9.35996 9.68056 7.61211 11.7939 7.50488L12 7.5H16.5L16.5078 7.34668C16.5846 6.59028 17.2233 6 18 6C18.7767 6 19.4154 6.59028 19.4922 7.34668L19.5 7.5H41.5L41.5078 7.34668C41.5846 6.59028 42.2233 6 43 6ZM11 48.5C11 49.0523 11.4477 49.5 12 49.5H49C49.5523 49.5 50 49.0523 50 48.5V24H11V48.5ZM25.6533 38.5078C26.4097 38.5846 27 39.2233 27 40C27 40.7767 26.4097 41.4154 25.6533 41.4922L25.5 41.5H20.5C19.6716 41.5 19 40.8284 19 40C19 39.1716 19.6716 38.5 20.5 38.5H25.5L25.6533 38.5078ZM12 10.5C11.4823 10.5 11.0562 10.8933 11.0049 11.3975L11 11.5V21H50V11.5C50 10.9823 49.6067 10.5562 49.1025 10.5049L49 10.5H44.5V12.5C44.5 13.3284 43.8284 14 43 14C42.1716 14 41.5 13.3284 41.5 12.5V10.5H19.5V12.5C19.5 13.3284 18.8284 14 18 14C17.1716 14 16.5 13.3284 16.5 12.5V10.5H12Z" fill="#A5A5A5"/>
</svg>
