<svg width="16" height="16" viewBox="0 0 16 16" fill="none" xmlns="http://www.w3.org/2000/svg">
<path d="M11.3301 1.25C11.7182 1.25 12.0375 1.5449 12.0762 1.92285L12.0801 2V2.58496C13.1298 3.22675 13.8595 4.33856 13.9785 5.62793C14.0419 5.73792 14.0811 5.86398 14.0811 6C14.0811 6.12147 14.0484 6.23445 13.9971 6.33594V10L13.9922 10.2061C13.8884 12.2512 12.2483 13.8913 10.2031 13.9951L9.99707 14H5.99707L5.79102 13.9951C3.74587 13.8913 2.10572 12.2512 2.00195 10.2061L1.99707 10V6.33594C1.94584 6.23447 1.91406 6.12143 1.91406 6C1.91406 5.86528 1.95149 5.74013 2.01367 5.63086C2.13176 4.34018 2.8635 3.22726 3.91406 2.58496V2L3.91797 1.92285C3.95661 1.5449 4.27591 1.25 4.66406 1.25C5.05209 1.25016 5.37156 1.54497 5.41016 1.92285L5.41406 2V2.04199C5.53797 2.0239 5.6637 2.01134 5.79102 2.00488L5.99707 2H9.99707L10.2031 2.00488C10.3304 2.01134 10.4562 2.0239 10.5801 2.04199V2L10.584 1.92285C10.6226 1.54497 10.942 1.25016 11.3301 1.25ZM3.49707 10C3.49707 11.3807 4.61636 12.5 5.99707 12.5H9.99707C11.3778 12.5 12.4971 11.3807 12.4971 10V6.75H3.49707V10ZM6.74023 9.9209C7.11836 9.95937 7.41309 10.2787 7.41309 10.667C7.41292 11.0551 7.11825 11.3746 6.74023 11.4131L6.66309 11.417H5.33008C4.91612 11.4168 4.58025 11.0809 4.58008 10.667C4.58008 10.2529 4.91601 9.91717 5.33008 9.91699H6.66309L6.74023 9.9209ZM5.99707 3.5C5.77924 3.5 5.56864 3.53066 5.36719 3.58301C5.264 3.87372 4.99013 4.08287 4.66406 4.08301C4.58591 4.08301 4.51127 4.06807 4.44043 4.0459C4.05577 4.35273 3.76326 4.76952 3.6123 5.25H12.3818C12.2308 4.76928 11.9377 4.35277 11.5527 4.0459C11.4822 4.0679 11.4079 4.08301 11.3301 4.08301C11.0039 4.08287 10.7291 3.87388 10.626 3.58301C10.4248 3.53081 10.2146 3.5 9.99707 3.5H5.99707Z" fill="#FDFDFB" fill-opacity="0.7"/>
</svg>
