<svg width="18" height="18" viewBox="0 0 18 18" fill="none" xmlns="http://www.w3.org/2000/svg">
<g clip-path="url(#clip0_663_621)">
<path d="M0.75 3V7.5H5.25" stroke="#FDFDFB" stroke-width="2" stroke-linecap="round" stroke-linejoin="round"/>
<path d="M17.25 15V10.5H12.75" stroke="#FDFDFB" stroke-width="2" stroke-linecap="round" stroke-linejoin="round"/>
<path d="M15.3675 6.74823C14.9871 5.67331 14.3407 4.71228 13.4884 3.95479C12.6361 3.1973 11.6059 2.66805 10.4938 2.41642C9.38167 2.16479 8.22393 2.19898 7.12861 2.51581C6.03328 2.83263 5.03606 3.42176 4.23 4.22823L0.75 7.49823M17.25 10.4982L13.77 13.7682C12.9639 14.5747 11.9667 15.1638 10.8714 15.4806C9.77607 15.7975 8.61833 15.8317 7.50621 15.58C6.3941 15.3284 5.36385 14.7991 4.5116 14.0417C3.65935 13.2842 3.01288 12.3231 2.6325 11.2482" stroke="#FDFDFB" stroke-width="2" stroke-linecap="round" stroke-linejoin="round"/>
</g>
<defs>
<clipPath id="clip0_663_621">
<rect width="18" height="18" fill="white"/>
</clipPath>
</defs>
</svg>
