<svg xmlns="http://www.w3.org/2000/svg" width="100" height="100" fill="none"><path fill="#F24242" fill-opacity=".5" d="M50 91.666c-5.764 0-11.18-1.094-16.25-3.283s-9.48-5.157-13.23-8.904c-3.75-3.75-6.717-8.16-8.904-13.23C9.43 61.18 8.336 55.765 8.333 50c0-5.763 1.094-11.18 3.283-16.25 2.19-5.069 5.157-9.479 8.904-13.229 3.75-3.75 8.16-6.717 13.23-8.904C38.82 9.43 44.236 8.336 50 8.333c5.764 0 11.18 1.094 16.25 3.283 5.07 2.19 9.479 5.157 13.229 8.904 3.75 3.75 6.72 8.16 8.908 13.23 2.19 5.07 3.282 10.486 3.28 16.25 0 5.764-1.095 11.18-3.284 16.25s-5.157 9.479-8.904 13.229c-3.75 3.75-8.16 6.72-13.23 8.908-5.069 2.19-10.485 3.282-16.25 3.28Zm0-8.333c9.305 0 17.187-3.23 23.645-9.688 6.459-6.458 9.688-14.34 9.688-23.645 0-3.75-.608-7.361-1.825-10.834a33.22 33.22 0 0 0-5.258-9.583L29.583 76.25a33.168 33.168 0 0 0 9.583 5.262A32.451 32.451 0 0 0 50 83.333ZM23.75 70.416 70.416 23.75a33.086 33.086 0 0 0-9.583-5.259A32.667 32.667 0 0 0 50 16.666c-9.306 0-17.188 3.23-23.646 9.688-6.459 6.458-9.688 14.34-9.688 23.646 0 3.75.607 7.36 1.821 10.833a33.032 33.032 0 0 0 5.263 9.583Z"/></svg>