<svg width="64" height="64" viewBox="0 0 64 64" fill="none" xmlns="http://www.w3.org/2000/svg">
<path d="M57.8932 54.1073L54.1065 57.894C53.6069 58.3907 52.931 58.6694 52.2265 58.6694C51.522 58.6694 50.8461 58.3907 50.3465 57.894L18.6665 26.2673C17.7993 26.5185 16.9025 26.6531 15.9998 26.6673C14.302 26.6661 12.6289 26.2596 11.1198 25.4816C9.61068 24.7036 8.30907 23.5766 7.3232 22.1943C6.33733 20.812 5.69567 19.2143 5.45159 17.5341C5.2075 15.8539 5.36803 14.1397 5.91984 12.534L12.6932 19.3073L14.1065 17.894L17.8932 14.1073L19.3065 12.694L12.5332 5.92065C14.1389 5.36885 15.8531 5.20831 17.5333 5.4524C19.2135 5.69649 20.8112 6.33814 22.1935 7.32402C23.5758 8.30989 24.7028 9.6115 25.4808 11.1206C26.2588 12.6298 26.6653 14.3028 26.6665 16.0007C26.6522 16.9034 26.5177 17.8001 26.2665 18.6673L57.8932 50.3473C58.3898 50.847 58.6686 51.5228 58.6686 52.2273C58.6686 52.9318 58.3898 53.6077 57.8932 54.1073ZM6.1065 50.3473C5.60983 50.847 5.33105 51.5228 5.33105 52.2273C5.33105 52.9318 5.60983 53.6077 6.1065 54.1073L9.89317 57.894C10.3928 58.3907 11.0687 58.6694 11.7732 58.6694C12.4777 58.6694 13.1535 58.3907 13.6532 57.894L28.2398 43.334L20.6932 35.7873M53.3332 5.33398L42.6665 10.6673V16.0007L36.8798 21.7873L42.2132 27.1207L47.9998 21.334H53.3332L58.6665 10.6673L53.3332 5.33398Z" fill="#5F5F5F"/>
</svg>
