<svg width="24" height="24" viewBox="0 0 24 24" fill="none" xmlns="http://www.w3.org/2000/svg">
<path d="M4 6.375H5.71429M20 6.375H18.2857M5.71429 6.375L6.71303 19.1558C6.79438 20.1968 7.66281 21 8.70695 21H12H15.293C16.3372 21 17.2056 20.1968 17.287 19.1558L18.2857 6.375M5.71429 6.375H7.42857M18.2857 6.375H16.5714M7.42857 6.375L8.1114 4.35853C8.38638 3.54646 9.14837 3 10.0057 3H13.9943C14.8516 3 15.6136 3.54646 15.8886 4.35853L16.5714 6.375M7.42857 6.375H16.5714M10.2857 10.875V15.9375M13.7143 10.875V15.9375" stroke="white" stroke-width="1.5" stroke-linecap="round" stroke-linejoin="round"/>
</svg>
