<svg xmlns="http://www.w3.org/2000/svg" width="24" height="24" fill="none"><path stroke="#CED0D1" stroke-linecap="round" stroke-width="2" d="M16 18.437V20H2v-1.563c0-.594.258-1.166.744-1.508C5.483 15 8.083 15 9 15c.917 0 3.517 0 6.256 1.93.486.341.744.913.744 1.507Z"/><path stroke="#CED0D1" stroke-linecap="round" stroke-linejoin="round" stroke-width="2" d="M9.5 11a3.5 3.5 0 1 0 0-7 3.5 3.5 0 0 0 0 7Z"/><path stroke="#CED0D1" stroke-linecap="round" stroke-width="2" d="M19 15c.858.189 1.618.615 2.161 1.212.543.596.838 1.33.839 2.084V20h-3"/><path stroke="#CED0D1" stroke-linecap="round" stroke-linejoin="round" stroke-width="2" d="M15 4a4.043 4.043 0 0 1 2.162 1.285A3.4 3.4 0 0 1 18 7.5a3.4 3.4 0 0 1-.838 2.215A4.043 4.043 0 0 1 15 11"/></svg>