<svg width="24" height="24" viewBox="0 0 24 24" fill="none" xmlns="http://www.w3.org/2000/svg">
<path d="M4.73438 17.8016C4.30833 17.8016 3.96296 17.4562 3.96296 17.0302V10.0641C3.96296 9.56028 3.41011 9.25195 2.98148 9.5167C2.55284 9.78145 2 9.47312 2 8.96931V8.81999C2 8.56596 2.13266 8.33038 2.34987 8.19865L3.72395 7.36538C3.88029 7.27057 4.05963 7.22044 4.24248 7.22044H4.50579C5.05808 7.22044 5.5058 7.66816 5.5058 8.22044V17.0302C5.5058 17.4562 5.16042 17.8016 4.73438 17.8016Z" fill="#FDFDFB"/>
<path d="M7.98021 17.7943C7.45567 17.7943 7.03124 17.3676 7.03401 16.843C7.03542 16.5782 7.14772 16.3261 7.34365 16.148L11.5778 12.2979C11.9448 11.9697 12.1935 11.6562 12.3239 11.3574C12.4591 11.0586 12.5267 10.7597 12.5267 10.4609C12.5267 10.0837 12.4446 9.74571 12.2804 9.44689C12.1162 9.14318 11.8893 8.90314 11.5995 8.72679C11.3098 8.55043 10.9766 8.46226 10.6 8.46226C10.2136 8.46226 9.86838 8.55533 9.56416 8.74148C9.26476 8.92273 9.03056 9.16522 8.86155 9.46894C8.82111 9.54161 8.78564 9.61568 8.75516 9.69116C8.59439 10.0892 8.26416 10.4536 7.83493 10.4536C7.40981 10.4536 7.05473 10.1056 7.13501 9.68813C7.20747 9.31141 7.3363 8.96647 7.52152 8.65331C7.83057 8.13405 8.2531 7.7299 8.78911 7.44088C9.32512 7.14696 9.9384 7 10.6289 7C11.2857 7 11.8748 7.15186 12.3963 7.45558C12.9178 7.7544 13.3283 8.16589 13.6277 8.69005C13.9319 9.21421 14.084 9.81185 14.084 10.483C14.084 10.9679 14.0212 11.3794 13.8957 11.7174C13.7701 12.0554 13.5818 12.369 13.3307 12.658C13.0796 12.947 12.7657 13.2605 12.3891 13.5985L9.0592 16.6136C8.9747 16.6901 8.83968 16.6575 8.79939 16.5509C8.75942 16.4451 8.83758 16.332 8.95066 16.332H13.3529C13.7567 16.332 14.084 16.6593 14.084 17.0631C14.084 17.4669 13.7567 17.7943 13.3529 17.7943H7.98021Z" fill="#FDFDFB"/>
<path d="M18.5159 18C17.9992 18 17.5139 17.902 17.06 17.7061C16.6061 17.5052 16.2125 17.2211 15.8793 16.8537C15.7187 16.6739 15.5794 16.4784 15.4615 16.2669C15.254 15.8947 15.4986 15.4585 15.9088 15.3431C16.3073 15.2311 16.7062 15.4742 16.9558 15.8045C17.0691 15.9545 17.2028 16.0838 17.357 16.1924C17.7047 16.4324 18.091 16.55 18.5159 16.5451C18.8974 16.5402 19.233 16.4496 19.5228 16.2732C19.8125 16.0969 20.0395 15.8593 20.2036 15.5605C20.3678 15.2567 20.4499 14.9089 20.4499 14.517C20.4499 13.9292 20.2688 13.4442 19.9067 13.0621C19.5493 12.68 19.0809 12.489 18.5014 12.489C18.3373 12.489 18.1683 12.5135 17.9944 12.5625C17.7172 12.6428 17.4016 12.5576 17.2558 12.3085L17.1339 12.1003C16.9434 11.7749 17.0082 11.3602 17.289 11.1085L20.3081 8.40142C20.3932 8.3251 20.5285 8.35915 20.5674 8.46666C20.6054 8.57176 20.5275 8.6827 20.4158 8.6827H16.3063C15.9025 8.6827 15.5751 8.35536 15.5751 7.95157C15.5751 7.54778 15.9025 7.22044 16.3063 7.22044H20.8479C21.4002 7.22044 21.8479 7.66816 21.8479 8.22044V8.26135C21.8479 8.53078 21.7392 8.78881 21.5464 8.977L19.0377 11.4254C18.9435 11.5173 18.785 11.4533 18.7812 11.3217C18.7787 11.2366 18.8471 11.166 18.9322 11.1692C19.5238 11.1911 20.0418 11.3396 20.4861 11.6146C20.969 11.9085 21.3409 12.3102 21.6016 12.8196C21.8672 13.3242 22 13.89 22 14.517C22 15.1931 21.8431 15.7931 21.5292 16.3173C21.2201 16.8415 20.8024 17.253 20.2761 17.5518C19.7546 17.8506 19.1678 18 18.5159 18Z" fill="#FDFDFB"/>
</svg>
